# This file uses centimeters as units for non-parametric coordinates.

mtllib chair.mtl
g default
v -87.637558 0.728490 118.225141
v -87.637558 0.728490 118.804732
v -87.794208 6.654676 118.068483
v -87.794208 6.654676 118.961390
v -86.901292 6.654676 118.068483
v -86.901292 6.654676 118.961390
v -87.057967 0.728490 118.225141
v -87.057967 0.728490 118.804732
v -87.941095 0.728490 123.398515
v -87.941095 0.728490 123.978106
v -88.097770 6.654676 123.241848
v -88.097770 6.654676 124.134764
v -87.204828 6.654676 123.241848
v -87.204828 6.654676 124.134764
v -87.361512 0.728490 123.398515
v -87.361512 0.728490 123.978106
v -92.929924 0.728490 123.499238
v -92.929924 0.728490 124.078837
v -93.086574 6.654676 123.342571
v -93.086574 6.654676 124.235495
v -92.193666 6.654676 123.342571
v -92.193666 6.654676 124.235495
v -92.350333 0.728490 123.499238
v -92.350333 0.728490 124.078837
v -92.929924 0.728490 118.295154
v -92.929924 0.728490 118.874745
v -93.086574 6.654676 118.138495
v -93.086574 6.654676 119.031411
v -92.193666 6.654676 118.138495
v -92.193666 6.654676 119.031411
v -92.350333 0.728490 118.295154
v -92.350333 0.728490 118.874745
v -93.479941 5.588256 117.869750
v -93.479941 5.588256 124.605609
v -93.479941 6.837309 117.869750
v -93.479941 6.837309 124.605609
v -86.744065 6.837309 117.869750
v -86.744065 6.837309 124.605609
v -86.744065 5.588256 117.869750
v -86.744065 5.588256 124.605609
vt 0.748763 0.624038
vt 0.747501 0.593818
vt 0.630184 0.931239
vt 0.769835 0.932792
vt 0.676686 0.934218
vt 0.723279 0.934736
vt 0.688299 0.624963
vt 0.718543 0.625299
vt 0.777169 0.408952
vt 0.777169 0.443466
vt 0.767839 0.796489
vt 0.767839 0.055928
vt 0.821013 0.796489
vt 0.821013 0.055928
vt 0.811683 0.443466
vt 0.811683 0.408951
vt 0.940480 0.032558
vt 0.940480 0.002940
vt 0.948485 0.381119
vt 0.948485 0.335490
vt 0.902857 0.381119
vt 0.902857 0.335490
vt 0.910863 0.684051
vt 0.910863 0.032558
vt 0.130542 0.637407
vt 0.130117 0.606813
vt 0.001984 0.944719
vt 0.143158 0.950220
vt 0.048923 0.949039
vt 0.096025 0.950875
vt 0.069374 0.636641
vt 0.099948 0.637832
vt 0.355780 0.300445
vt 0.057327 0.300445
vt 0.001984 0.300445
vt 0.411123 0.300445
vt 0.001984 0.598899
vt 0.411123 0.598899
vt 0.057327 0.598899
vt 0.355780 0.598899
vt 0.821013 0.002756
vt 0.874111 0.058737
vt 0.767839 0.002756
vt 0.714741 0.058737
vt 0.846149 0.410774
vt 0.742703 0.410774
vt 0.881287 0.030993
vt 0.910863 0.002940
vt 0.970056 0.030993
vt 0.940480 0.684051
vt 0.857293 0.333080
vt 0.994049 0.333081
vt 0.717281 0.595080
vt 0.658115 0.623030
vt 0.771779 0.979347
vt 0.725223 0.981291
vt 0.628075 0.619505
vt 0.583906 0.925810
vt 0.099523 0.607238
vt 0.161071 0.635367
vt 0.038905 0.633836
vt 0.190191 0.947077
vt 0.143813 0.997353
vt 0.096680 0.998008
vt 0.709576 0.598899
vt 0.411123 0.897352
vt 0.355780 0.897352
vt 0.411123 0.001992
vt 0.709576 0.300445
vt 0.355780 0.001992
vn -0.999651 -0.026424 0.000000
vn -0.999651 -0.026424 0.000000
vn -0.999651 -0.026424 0.000000
vn -0.999651 -0.026424 0.000000
vn 0.000000 1.000000 0.000000
vn 0.000000 1.000000 0.000000
vn 0.000000 1.000000 0.000000
vn 0.000000 1.000000 0.000000
vn 0.999651 -0.026429 -0.000000
vn 0.999651 -0.026429 -0.000000
vn 0.999651 -0.026429 -0.000000
vn 0.999651 -0.026429 -0.000000
vn 0.000000 -1.000000 0.000000
vn 0.000000 -1.000000 0.000000
vn 0.000000 -1.000000 0.000000
vn 0.000000 -1.000000 0.000000
vn 0.000000 -0.026426 0.999651
vn 0.000000 -0.026426 0.999651
vn 0.000000 -0.026426 0.999651
vn 0.000000 -0.026426 0.999651
vn -0.000000 -0.026425 -0.999651
vn -0.000000 -0.026425 -0.999651
vn -0.000000 -0.026425 -0.999651
vn -0.000000 -0.026425 -0.999651
vn -0.999651 -0.026428 0.000000
vn -0.999651 -0.026428 0.000000
vn -0.999651 -0.026428 0.000000
vn -0.999651 -0.026428 0.000000
vn 0.000000 1.000000 0.000000
vn 0.000000 1.000000 0.000000
vn 0.000000 1.000000 0.000000
vn 0.000000 1.000000 0.000000
vn 0.999651 -0.026430 -0.000000
vn 0.999651 -0.026430 -0.000000
vn 0.999651 -0.026430 -0.000000
vn 0.999651 -0.026430 -0.000000
vn 0.000000 -1.000000 0.000000
vn 0.000000 -1.000000 0.000000
vn 0.000000 -1.000000 0.000000
vn 0.000000 -1.000000 0.000000
vn 0.000000 -0.026425 0.999651
vn 0.000000 -0.026425 0.999651
vn 0.000000 -0.026425 0.999651
vn 0.000000 -0.026425 0.999651
vn -0.000000 -0.026427 -0.999651
vn -0.000000 -0.026427 -0.999651
vn -0.000000 -0.026427 -0.999651
vn -0.000000 -0.026427 -0.999651
vn -0.999651 -0.026424 0.000000
vn -0.999651 -0.026424 0.000000
vn -0.999651 -0.026424 0.000000
vn -0.999651 -0.026424 0.000000
vn 0.000000 1.000000 0.000000
vn 0.000000 1.000000 0.000000
vn 0.000000 1.000000 0.000000
vn 0.000000 1.000000 0.000000
vn 0.999651 -0.026427 -0.000000
vn 0.999651 -0.026427 -0.000000
vn 0.999651 -0.026427 -0.000000
vn 0.999651 -0.026427 -0.000000
vn 0.000000 -1.000000 0.000000
vn 0.000000 -1.000000 0.000000
vn 0.000000 -1.000000 0.000000
vn 0.000000 -1.000000 0.000000
vn 0.000000 -0.026426 0.999651
vn 0.000000 -0.026426 0.999651
vn 0.000000 -0.026426 0.999651
vn 0.000000 -0.026426 0.999651
vn -0.000000 -0.026426 -0.999651
vn -0.000000 -0.026426 -0.999651
vn -0.000000 -0.026426 -0.999651
vn -0.000000 -0.026426 -0.999651
vn -0.999651 -0.026424 0.000000
vn -0.999651 -0.026424 0.000000
vn -0.999651 -0.026424 0.000000
vn -0.999651 -0.026424 0.000000
vn 0.000000 1.000000 0.000000
vn 0.000000 1.000000 0.000000
vn 0.000000 1.000000 0.000000
vn 0.000000 1.000000 0.000000
vn 0.999651 -0.026427 -0.000000
vn 0.999651 -0.026427 -0.000000
vn 0.999651 -0.026427 -0.000000
vn 0.999651 -0.026427 -0.000000
vn 0.000000 -1.000000 0.000000
vn 0.000000 -1.000000 0.000000
vn 0.000000 -1.000000 0.000000
vn 0.000000 -1.000000 0.000000
vn 0.000000 -0.026427 0.999651
vn 0.000000 -0.026427 0.999651
vn 0.000000 -0.026427 0.999651
vn 0.000000 -0.026427 0.999651
vn -0.000000 -0.026426 -0.999651
vn -0.000000 -0.026426 -0.999651
vn -0.000000 -0.026426 -0.999651
vn -0.000000 -0.026426 -0.999651
vn -1.000000 0.000000 0.000000
vn -1.000000 0.000000 0.000000
vn -1.000000 0.000000 0.000000
vn -1.000000 0.000000 0.000000
vn 0.000000 1.000000 0.000000
vn 0.000000 1.000000 0.000000
vn 0.000000 1.000000 0.000000
vn 0.000000 1.000000 0.000000
vn 1.000000 0.000000 -0.000000
vn 1.000000 0.000000 -0.000000
vn 1.000000 0.000000 -0.000000
vn 1.000000 0.000000 -0.000000
vn 0.000000 -1.000000 0.000000
vn 0.000000 -1.000000 0.000000
vn 0.000000 -1.000000 0.000000
vn 0.000000 -1.000000 0.000000
vn 0.000000 0.000000 1.000000
vn 0.000000 0.000000 1.000000
vn 0.000000 0.000000 1.000000
vn 0.000000 0.000000 1.000000
vn -0.000000 0.000000 -1.000000
vn -0.000000 0.000000 -1.000000
vn -0.000000 0.000000 -1.000000
vn -0.000000 0.000000 -1.000000
s off
g pCube95 group2
usemtl initialShadingGroup
f 1/57/1 2/54/2 4/3/3 3/58/4
f 3/4/5 4/55/6 6/56/7 5/6/8
f 5/6/9 6/5/10 8/7/11 7/8/12
f 7/8/13 8/53/14 2/2/15 1/1/16
f 2/54/17 8/7/18 6/5/19 4/3/20
f 7/8/21 1/1/22 3/4/23 5/6/24
f 9/9/25 10/46/26 12/44/27 11/12/28
f 11/12/29 12/43/30 14/41/31 13/14/32
f 13/14/33 14/42/34 16/45/35 15/16/36
f 15/16/37 16/15/38 10/10/39 9/9/40
f 10/10/41 16/15/42 14/13/43 12/11/44
f 15/16/45 9/9/46 11/12/47 13/14/48
f 17/17/49 18/49/50 20/52/51 19/20/52
f 19/20/53 20/19/54 22/21/55 21/22/56
f 21/22/57 22/51/58 24/47/59 23/24/60
f 23/24/61 24/48/62 18/18/63 17/17/64
f 18/50/65 24/23/66 22/21/67 20/19/68
f 23/24/69 17/17/70 19/20/71 21/22/72
f 25/25/73 26/60/74 28/62/75 27/28/76
f 27/28/77 28/63/78 30/64/79 29/30/80
f 29/30/81 30/29/82 32/31/83 31/32/84
f 31/32/85 32/59/86 26/26/87 25/25/88
f 26/61/89 32/31/90 30/29/91 28/27/92
f 31/32/93 25/25/94 27/28/95 29/30/96
f 33/33/97 34/70/98 36/68/99 35/36/100
f 35/36/101 36/69/102 38/65/103 37/38/104
f 37/38/105 38/66/106 40/67/107 39/40/108
f 39/40/109 40/39/110 34/34/111 33/33/112
f 34/34/113 40/39/114 38/37/115 36/35/116
f 39/40/117 33/33/118 35/36/119 37/38/120
