# This file uses centimeters as units for non-parametric coordinates.

mtllib Decoration 1 street sign.mtl
g default
v -116.446967 38.797487 85.752323
v -114.290405 39.896306 85.758169
v -112.578970 41.607755 85.762809
v -111.480158 43.764314 85.765788
v -111.101528 46.154870 85.766814
v -111.480158 48.545431 85.765788
v -112.578970 50.701986 85.762809
v -114.290420 52.413434 85.758169
v -116.446967 53.512258 85.752323
v -118.837523 53.890886 85.745842
v -121.228063 53.512258 85.739361
v -123.384610 52.413434 85.733515
v -125.096060 50.701986 85.728875
v -126.194872 48.545431 85.725896
v -126.573502 46.154870 85.724870
v -126.194872 43.764314 85.725896
v -125.096060 41.607763 85.728875
v -123.384610 39.896310 85.733515
v -121.228063 38.797490 85.739361
v -118.837523 38.418863 85.745842
v -118.837523 46.154870 85.745842
v -116.448648 38.797487 86.372220
v -114.292086 39.896306 86.378067
v -118.839203 46.154870 86.365739
v -112.580651 41.607755 86.382707
v -111.481839 43.764314 86.385685
v -111.103209 46.154870 86.386712
v -111.481839 48.545431 86.385685
v -112.580651 50.701986 86.382707
v -114.292101 52.413434 86.378067
v -116.448648 53.512258 86.372220
v -118.839203 53.890886 86.365739
v -121.229743 53.512258 86.359259
v -123.386290 52.413434 86.353412
v -125.097740 50.701986 86.348772
v -126.196552 48.545431 86.345793
v -126.575182 46.154870 86.344767
v -126.196552 43.764314 86.345793
v -125.097740 41.607763 86.348772
v -123.386290 39.896310 86.353412
v -121.229743 38.797490 86.359259
v -118.839203 38.418863 86.365739
v -119.589434 4.957401 84.463190
v -119.594021 4.957401 86.154986
v -119.589434 45.453710 84.463190
v -119.594021 45.453710 86.154986
v -117.897638 45.453710 84.467776
v -117.902224 45.453710 86.159573
v -117.897638 4.957401 84.467776
v -117.902224 4.957401 86.159573
v -125.532950 26.598031 85.919792
v -125.535120 26.598031 86.720158
v -125.532950 34.756940 85.919792
v -125.535120 34.756940 86.720158
v -111.459302 34.756940 85.957946
v -111.461471 34.756940 86.758312
v -111.459302 26.598031 85.957946
v -111.461471 26.598031 86.758312
vt 0.834643 0.136796
vt 0.642176 0.092446
vt 0.800909 0.268373
vt 0.600277 0.085337
vt 0.558378 0.078227
vt 0.516479 0.071117
vt 0.474581 0.064007
vt 0.432682 0.056897
vt 0.390783 0.049787
vt 0.348884 0.042677
vt 0.306986 0.035567
vt 0.265087 0.028457
vt 0.223188 0.021347
vt 0.181289 0.014237
vt 0.139391 0.007127
vt 0.935467 0.142216
vt 0.893568 0.135106
vt 0.851669 0.127996
vt 0.809771 0.120886
vt 0.767872 0.113776
vt 0.725973 0.106666
vt 0.682253 0.110287
vt 0.531513 0.222231
vt 0.640355 0.103178
vt 0.598456 0.096068
vt 0.556557 0.088958
vt 0.514658 0.081848
vt 0.472760 0.074738
vt 0.430861 0.067628
vt 0.388962 0.060518
vt 0.347063 0.053408
vt 0.305165 0.046298
vt 0.263266 0.039188
vt 0.221367 0.032078
vt 0.179468 0.024968
vt 0.137570 0.017858
vt 0.933646 0.152947
vt 0.891747 0.145837
vt 0.849848 0.138727
vt 0.807950 0.131617
vt 0.766051 0.124507
vt 0.724152 0.117397
vt 0.041963 0.043938
vt 0.019994 0.023944
vt 0.587826 0.500568
vt 0.567832 0.522537
vt 0.607821 0.478599
vt 0.547838 0.544506
vt 0.081952 0.000000
vt 0.021969 0.065907
vt 0.318972 0.472828
vt 0.000000 0.638745
vt 0.288007 1.000000
vt 0.606979 0.834083
vt 0.368875 0.766495
vt 0.373474 0.753215
vt 0.233505 0.719613
vt 0.238104 0.706334
vt 0.323571 0.459549
vt 0.152637 0.953119
vt 0.004599 0.625466
vt 0.458941 0.506430
vt 0.602381 0.847363
vt 0.454342 0.519710
vt 0.001975 0.087876
vt 0.000000 0.045913
vt 0.061958 0.021969
vt 0.569807 0.564501
vt 0.527843 0.566476
vt 0.589801 0.542532
vt 0.792332 0.132812
vt 0.684075 0.099557
vt 0.750862 0.142097
vt 0.714290 0.163743
vt 0.686197 0.195631
vt 0.669333 0.234639
vt 0.097492 0.000017
vt 0.665348 0.276950
vt 0.674633 0.318421
vt 0.667296 0.218579
vt 0.095671 0.010748
vt 0.696279 0.354993
vt 0.728167 0.383086
vt 0.767176 0.399950
vt 0.809486 0.403934
vt 0.850957 0.394649
vt 0.887529 0.373003
vt 0.915622 0.341115
vt 0.932486 0.302107
vt 0.936471 0.259796
vt 0.927185 0.218325
vt 0.905539 0.181753
vt 0.873652 0.153661
vt 0.527861 0.086448
vt 0.486080 0.094223
vt 0.569999 0.091965
vt 0.608369 0.110234
vt 0.639217 0.139465
vt 0.659522 0.176798
vt 0.661779 0.260717
vt 0.643511 0.299088
vt 0.614279 0.329935
vt 0.576946 0.350240
vt 0.535166 0.358015
vt 0.493027 0.352498
vt 0.454657 0.334229
vt 0.423809 0.304998
vt 0.403504 0.267664
vt 0.395730 0.225884
vt 0.401247 0.183746
vt 0.419515 0.145375
vt 0.448747 0.114527
vn -0.002711 0.000000 0.999996
vn -0.002711 -0.000001 0.999996
vn -0.002711 0.000000 0.999996
vn -0.002711 0.000001 0.999996
vn -0.002711 0.000002 0.999996
vn -0.002711 0.000000 0.999996
vn -0.002711 -0.000002 0.999996
vn -0.002711 0.000000 0.999996
vn -0.002711 0.000002 0.999996
vn -0.002711 0.000000 0.999996
vn -0.002711 0.000000 0.999996
vn -0.002711 0.000000 0.999996
vn -0.002711 0.000000 0.999996
vn -0.002711 0.000000 0.999996
vn -0.002711 0.000000 0.999996
vn -0.002711 0.000000 0.999996
vn -0.002711 0.000000 0.999996
vn -0.002711 0.000000 0.999996
vn -0.002711 -0.000001 0.999996
vn -0.002711 -0.000001 0.999996
vn -0.002711 0.000000 0.999996
vn 0.002711 -0.000000 -0.999996
vn 0.002711 0.000000 -0.999996
vn 0.002711 0.000000 -0.999996
vn 0.002711 -0.000000 -0.999996
vn 0.002711 -0.000001 -0.999996
vn 0.002711 -0.000000 -0.999996
vn 0.002711 0.000001 -0.999996
vn 0.002711 0.000001 -0.999996
vn 0.002711 0.000000 -0.999996
vn 0.002711 0.000000 -0.999996
vn 0.002711 0.000000 -0.999996
vn 0.002711 0.000000 -0.999996
vn 0.002711 -0.000000 -0.999996
vn 0.002711 0.000000 -0.999996
vn 0.002711 0.000001 -0.999996
vn 0.002711 -0.000000 -0.999996
vn 0.002711 -0.000001 -0.999996
vn 0.002711 0.000000 -0.999996
vn 0.002711 0.000000 -0.999996
vn 0.002711 -0.000000 -0.999996
vn 0.002711 0.000000 -0.999996
vn 0.309014 -0.951057 0.000838
vn 0.587783 -0.809017 0.001593
vn 0.587783 -0.809017 0.001593
vn 0.309014 -0.951057 0.000838
vn 0.809016 -0.587783 0.002193
vn 0.809016 -0.587783 0.002193
vn 0.951053 -0.309017 0.002578
vn 0.951053 -0.309017 0.002578
vn 0.999996 0.000000 0.002711
vn 0.999996 0.000000 0.002711
vn 0.951053 0.309017 0.002578
vn 0.951053 0.309017 0.002578
vn 0.809014 0.587785 0.002193
vn 0.809014 0.587785 0.002193
vn 0.587784 0.809017 0.001593
vn 0.587784 0.809017 0.001593
vn 0.309016 0.951056 0.000838
vn 0.309016 0.951056 0.000838
vn -0.000000 1.000000 -0.000000
vn -0.000000 1.000000 -0.000000
vn -0.309018 0.951056 -0.000838
vn -0.309018 0.951056 -0.000838
vn -0.587784 0.809017 -0.001593
vn -0.587784 0.809017 -0.001593
vn -0.809014 0.587785 -0.002193
vn -0.809014 0.587785 -0.002193
vn -0.951053 0.309017 -0.002578
vn -0.951053 0.309017 -0.002578
vn -0.999996 0.000000 -0.002711
vn -0.999996 0.000000 -0.002711
vn -0.951053 -0.309018 -0.002578
vn -0.951053 -0.309018 -0.002578
vn -0.809014 -0.587785 -0.002193
vn -0.809014 -0.587785 -0.002193
vn -0.587784 -0.809016 -0.001593
vn -0.587784 -0.809016 -0.001593
vn -0.309017 -0.951056 -0.000838
vn -0.309017 -0.951056 -0.000838
vn -0.000001 -1.000000 -0.000000
vn -0.000001 -1.000000 -0.000000
vn -0.999996 0.000000 -0.002711
vn -0.999996 0.000000 -0.002711
vn -0.999996 0.000000 -0.002711
vn -0.999996 0.000000 -0.002711
vn -0.000000 1.000000 0.000000
vn -0.000000 1.000000 0.000000
vn -0.000000 1.000000 0.000000
vn -0.000000 1.000000 0.000000
vn 0.999996 0.000000 0.002711
vn 0.999996 0.000000 0.002711
vn 0.999996 0.000000 0.002711
vn 0.999996 0.000000 0.002711
vn 0.000000 -1.000000 0.000000
vn 0.000000 -1.000000 0.000000
vn 0.000000 -1.000000 0.000000
vn 0.000000 -1.000000 0.000000
vn -0.002711 0.000000 0.999996
vn -0.002711 0.000000 0.999996
vn -0.002711 0.000000 0.999996
vn -0.002711 0.000000 0.999996
vn 0.002711 0.000000 -0.999996
vn 0.002711 0.000000 -0.999996
vn 0.002711 0.000000 -0.999996
vn 0.002711 0.000000 -0.999996
vn -0.999996 0.000000 -0.002711
vn -0.999996 0.000000 -0.002711
vn -0.999996 0.000000 -0.002711
vn -0.999996 0.000000 -0.002711
vn -0.000000 1.000000 0.000000
vn -0.000000 1.000000 0.000000
vn -0.000000 1.000000 0.000000
vn -0.000000 1.000000 0.000000
vn 0.999996 0.000000 0.002711
vn 0.999996 0.000000 0.002711
vn 0.999996 0.000000 0.002711
vn 0.999996 0.000000 0.002711
vn 0.000000 -1.000000 0.000000
vn 0.000000 -1.000000 0.000000
vn 0.000000 -1.000000 0.000000
vn 0.000000 -1.000000 0.000000
vn -0.002711 0.000000 0.999996
vn -0.002711 0.000000 0.999996
vn -0.002711 0.000000 0.999996
vn -0.002711 0.000000 0.999996
vn 0.002711 0.000000 -0.999996
vn 0.002711 0.000000 -0.999996
vn 0.002711 0.000000 -0.999996
vn 0.002711 0.000000 -0.999996
s 1
g pCylinder6
usemtl initialShadingGroup
f 22/1/1 23/93/2 24/3/3
f 23/93/2 25/92/4 24/3/3
f 25/92/4 26/91/5 24/3/3
f 26/91/5 27/90/6 24/3/3
f 27/90/6 28/89/7 24/3/3
f 28/89/7 29/88/8 24/3/3
f 29/88/8 30/87/9 24/3/3
f 30/87/9 31/86/10 24/3/3
f 31/86/10 32/85/11 24/3/3
f 32/85/11 33/84/12 24/3/3
f 33/84/12 34/83/13 24/3/3
f 34/83/13 35/82/14 24/3/3
f 35/82/14 36/79/15 24/3/3
f 36/79/15 37/78/16 24/3/3
f 37/78/16 38/76/17 24/3/3
f 38/76/17 39/75/18 24/3/3
f 39/75/18 40/74/19 24/3/3
f 40/74/19 41/73/20 24/3/3
f 41/73/20 42/71/21 24/3/3
f 42/71/21 22/1/1 24/3/3
s 2
f 1/95/22 21/23/23 2/112/24
f 2/112/24 21/23/23 3/111/25
f 3/111/25 21/23/23 4/110/26
f 4/110/26 21/23/23 5/109/27
f 5/109/27 21/23/23 6/108/28
f 6/108/28 21/23/23 7/107/29
f 7/107/29 21/23/23 8/106/30
f 8/106/30 21/23/23 9/105/31
f 9/105/31 21/23/23 10/104/32
f 10/104/32 21/23/23 11/103/33
f 11/103/33 21/23/23 12/102/34
f 12/102/34 21/23/23 13/101/35
f 13/101/35 21/23/23 14/100/36
f 14/100/36 21/23/23 15/80/37
f 15/80/37 21/23/23 16/99/38
f 16/99/38 21/23/23 17/98/39
f 17/98/39 21/23/23 18/97/40
f 18/97/40 21/23/23 19/96/41
f 19/96/41 21/23/23 20/94/42
f 20/94/42 21/23/23 1/95/22
s 3
f 1/22/43 2/24/44 23/2/45 22/72/46
f 2/24/44 3/25/47 25/4/48 23/2/45
f 3/25/47 4/26/49 26/5/50 25/4/48
f 4/26/49 5/27/51 27/6/52 26/5/50
f 5/27/51 6/28/53 28/7/54 27/6/52
f 6/28/53 7/29/55 29/8/56 28/7/54
f 7/29/55 8/30/57 30/9/58 29/8/56
f 8/30/57 9/31/59 31/10/60 30/9/58
f 9/31/59 10/32/61 32/11/62 31/10/60
f 10/32/61 11/33/63 33/12/64 32/11/62
f 11/33/63 12/34/65 34/13/66 33/12/64
f 12/34/65 13/35/67 35/14/68 34/13/66
f 13/35/67 14/36/69 36/15/70 35/14/68
f 14/36/69 15/81/71 37/77/72 36/15/70
f 15/37/71 16/38/73 38/17/74 37/16/72
f 16/38/73 17/39/75 39/18/76 38/17/74
f 17/39/75 18/40/77 40/19/78 39/18/76
f 18/40/77 19/41/79 41/20/80 40/19/78
f 19/41/79 20/42/81 42/21/82 41/20/80
f 20/42/81 1/22/43 22/72/46 42/21/82
s off
f 43/43/83 44/67/84 46/45/85 45/46/86
f 45/46/87 46/70/88 48/68/89 47/48/90
f 47/48/91 48/69/92 50/65/93 49/50/94
f 49/50/95 50/66/96 44/44/97 43/43/98
f 44/67/99 50/49/100 48/47/101 46/45/102
f 49/50/103 43/43/104 45/46/105 47/48/106
f 51/51/107 52/59/108 54/62/109 53/64/110
f 53/54/111 54/63/112 56/55/113 55/56/114
f 55/56/115 56/55/116 58/57/117 57/58/118
f 57/58/119 58/57/120 52/52/121 51/61/122
f 52/60/123 58/57/124 56/55/125 54/53/126
f 57/58/127 51/51/128 53/64/129 55/56/130
