# This file uses centimeters as units for non-parametric coordinates.

mtllib wooden sign.mtl
g default
v -20.506539 1.281502 108.254689
v -20.506539 1.281502 111.715096
v -20.506539 26.803389 108.254689
v -20.506539 26.803389 111.715096
v -17.046136 26.803389 108.254689
v -17.046136 26.803389 111.715096
v -17.046136 1.281502 108.254689
v -17.046136 1.281502 111.715096
v -42.912667 1.281502 108.254689
v -42.912667 1.281502 111.715096
v -42.912667 26.803389 108.254689
v -42.912667 26.803389 111.715096
v -39.452264 26.803389 108.254689
v -39.452264 26.803389 111.715096
v -39.452264 1.281502 108.254689
v -39.452264 1.281502 111.715096
v -40.274926 15.871513 109.719025
v -40.274926 15.871513 110.722314
v -40.274926 18.097855 109.719025
v -40.274926 18.097855 110.722314
v -19.252198 18.097855 109.719025
v -19.252198 18.097855 110.722314
v -19.252198 15.871513 109.719025
v -19.252198 15.871513 110.722314
v -40.274926 12.146662 109.719025
v -40.274926 12.146662 110.722314
v -40.274926 14.373003 109.719025
v -40.274926 14.373003 110.722314
v -19.252198 14.373003 109.719025
v -19.252198 14.373003 110.722314
v -19.252198 12.146662 109.719025
v -19.252198 12.146662 110.722314
v -40.274926 8.421810 109.719025
v -40.274926 8.421810 110.722314
v -40.274926 10.648153 109.719025
v -40.274926 10.648153 110.722314
v -19.252198 10.648153 109.719025
v -19.252198 10.648153 110.722314
v -19.252198 8.421810 109.719025
v -19.252198 8.421810 110.722314
v -40.274926 4.696960 109.719025
v -40.274926 4.696960 110.722314
v -40.274926 6.923303 109.719025
v -40.274926 6.923303 110.722314
v -19.252198 6.923303 109.719025
v -19.252198 6.923303 110.722314
v -19.252198 4.696960 109.719025
v -19.252198 4.696960 110.722314
v -16.209252 1.676190 107.528920
v -16.188225 1.594789 112.376137
v -43.841889 1.452899 112.493668
v -43.862908 1.534302 107.646435
v -45.604249 -0.833719 107.307030
v -45.580590 -0.925436 112.768449
v -14.422921 -0.765569 112.636048
v -14.446603 -0.673851 107.174618
v -43.532876 2.495407 107.994675
v -43.866082 2.165867 107.657044
v -43.514725 2.425203 112.175050
v -43.845086 2.084464 112.504288
v -16.546136 2.633874 107.879986
v -16.212449 2.307756 107.539536
v -16.528008 2.563670 112.060364
v -16.191430 2.226353 112.386773
v -14.774430 -1.514818 107.495454
v -14.444070 -1.174079 107.166215
v -14.753617 -1.595336 112.290017
v -14.420388 -1.265797 112.627633
v -45.265137 -1.671263 107.625024
v -45.601716 -1.333945 107.298619
v -45.244347 -1.751781 112.419587
v -45.578057 -1.425663 112.760041
v -14.253045 19.380606 104.208462
v -14.253045 19.828978 102.827149
v -14.235017 28.148863 110.297112
v -14.235017 28.597235 108.915791
v -45.284196 28.148863 110.297112
v -45.284196 28.597235 108.915791
v -45.302247 19.380606 104.208462
v -45.302247 19.828978 102.827149
v -14.106148 23.946396 108.266793
v -14.106148 24.394768 106.885480
v -45.155343 24.394768 106.885480
v -45.155343 23.946396 108.266793
v -45.134019 19.237898 115.817948
v -45.129067 19.676058 117.206109
v -45.261185 28.050177 109.866223
v -45.256234 28.488337 111.254372
v -14.213708 28.240706 109.566510
v -14.208756 28.678866 110.954674
v -14.086533 19.428434 115.518243
v -14.081589 19.866593 116.906411
v -45.343255 23.832304 111.832314
v -45.338296 24.270464 113.220475
v -14.290833 24.460997 112.920777
v -14.295777 24.022835 111.532609
vt 0.279039 0.055557
vt 0.333581 0.055570
vt 0.333587 0.457762
vt 0.279041 0.457770
vt 0.388119 0.457758
vt 0.442651 0.457757
vt 0.388112 0.055570
vt 0.279115 0.000977
vt 0.333665 0.001044
vt 0.442644 0.055571
vt 0.224505 0.055558
vt 0.279095 0.512375
vt 0.224507 0.457771
vt 0.333669 0.512320
vt 0.055532 0.055557
vt 0.110074 0.055570
vt 0.110081 0.457762
vt 0.055535 0.457770
vt 0.110162 0.512320
vt 0.055588 0.512375
vt 0.219144 0.457757
vt 0.164613 0.457758
vt 0.164606 0.055570
vt 0.219137 0.055571
vt 0.055609 0.000977
vt 0.110159 0.001044
vt 0.000998 0.055558
vt 0.001000 0.457771
vt 0.188392 0.954754
vt 0.188392 0.977034
vt 0.138953 0.977034
vt 0.138953 0.954754
vt 0.116673 0.954755
vt 0.116673 0.487913
vt 0.138953 0.487918
vt 0.138953 0.465636
vt 0.188392 0.465636
vt 0.188392 0.487916
vt 0.210672 0.487914
vt 0.210671 0.954754
vt 0.260111 0.487915
vt 0.260111 0.954754
vt 0.811861 0.492056
vt 0.811861 0.514336
vt 0.762422 0.514336
vt 0.762422 0.492056
vt 0.740141 0.492056
vt 0.740142 0.025215
vt 0.762421 0.025219
vt 0.762422 0.002937
vt 0.811861 0.002937
vt 0.811860 0.025218
vt 0.834140 0.025215
vt 0.834139 0.492056
vt 0.883579 0.025217
vt 0.883580 0.492055
vt 0.664816 0.492056
vt 0.664816 0.514336
vt 0.615377 0.514336
vt 0.615377 0.492056
vt 0.593097 0.492056
vt 0.593097 0.025215
vt 0.615377 0.025219
vt 0.615377 0.002937
vt 0.664816 0.002937
vt 0.664816 0.025218
vt 0.687096 0.025215
vt 0.687095 0.492056
vt 0.736535 0.025217
vt 0.736535 0.492055
vt 0.517771 0.492056
vt 0.517772 0.514336
vt 0.468332 0.514336
vt 0.468332 0.492056
vt 0.446052 0.492056
vt 0.446052 0.025215
vt 0.468332 0.025219
vt 0.468332 0.002937
vt 0.517771 0.002937
vt 0.517771 0.025218
vt 0.540051 0.025215
vt 0.540050 0.492056
vt 0.589490 0.025217
vt 0.589490 0.492055
vt 0.039073 0.481154
vt 0.034328 0.470323
vt 0.040620 0.466779
vt 0.044602 0.477406
vt 0.044869 0.548814
vt 0.040683 0.557856
vt 0.035158 0.554649
vt 0.039415 0.545087
vt 0.000998 0.724891
vt 0.000998 0.479238
vt 0.022179 0.463675
vt 0.022179 0.740454
vt 0.906498 0.020640
vt 0.900662 0.012385
vt 0.985526 0.012385
vt 0.979688 0.020641
vt 0.898243 0.014803
vt 0.906498 0.493062
vt 0.898243 0.498900
vt 0.987944 0.014803
vt 0.987944 0.498899
vt 0.979689 0.493062
vt 0.900662 0.501318
vt 0.985527 0.501317
vt 0.047683 0.477795
vt 0.046669 0.477292
vt 0.041796 0.466380
vt 0.043200 0.466707
vt 0.046960 0.548373
vt 0.045946 0.548880
vt 0.030812 0.737492
vt 0.026623 0.740454
vt 0.026623 0.463675
vt 0.030812 0.466637
vt 0.042913 0.557946
vt 0.041695 0.558212
vt 0.338219 0.466369
vt 0.392583 0.466369
vt 0.392583 0.812049
vt 0.338219 0.812049
vt 0.985526 0.512374
vt 0.900662 0.512375
vt 0.999002 0.014803
vt 0.999002 0.498899
vt 0.900662 0.001328
vt 0.985528 0.001328
vt 0.887186 0.498900
vt 0.887186 0.014802
vt 0.450973 0.818770
vt 0.454771 0.831314
vt 0.410036 0.831254
vt 0.408364 0.817391
vt 0.395076 0.817219
vt 0.398769 0.533215
vt 0.412054 0.533385
vt 0.414402 0.520304
vt 0.457053 0.522047
vt 0.454730 0.535111
vt 0.510611 0.534536
vt 0.523889 0.534718
vt 0.520024 0.818702
vt 0.506741 0.818519
vt 0.575874 0.820808
vt 0.579736 0.536826
vt 0.622438 0.536231
vt 0.618577 0.820212
vt 0.512288 0.831017
vt 0.459939 0.522906
vt 0.515821 0.522314
vt 0.871262 0.530883
vt 0.868046 0.520584
vt 0.904735 0.520119
vt 0.906175 0.531544
vt 0.917121 0.531498
vt 0.917238 0.765052
vt 0.906282 0.765098
vt 0.904307 0.776244
vt 0.868166 0.774354
vt 0.871324 0.763942
vt 0.825639 0.765212
vt 0.814695 0.765174
vt 0.814644 0.531653
vt 0.825597 0.531694
vt 0.704102 0.498571
vt 0.704054 0.715683
vt 0.671520 0.716563
vt 0.671569 0.499451
vt 0.820979 0.521435
vt 0.746645 0.499577
vt 0.746597 0.716689
vt 0.821456 0.775582
vn -1.000000 0.000000 0.000000
vn -1.000000 0.000000 0.000000
vn -1.000000 0.000000 0.000000
vn -1.000000 0.000000 0.000000
vn 0.000000 1.000000 0.000000
vn 0.000000 1.000000 0.000000
vn 0.000000 1.000000 0.000000
vn 0.000000 1.000000 0.000000
vn 1.000000 0.000000 -0.000000
vn 1.000000 0.000000 -0.000000
vn 1.000000 0.000000 -0.000000
vn 1.000000 0.000000 -0.000000
vn 0.000000 -1.000000 0.000000
vn 0.000000 -1.000000 0.000000
vn 0.000000 -1.000000 0.000000
vn 0.000000 -1.000000 0.000000
vn 0.000000 0.000000 1.000000
vn 0.000000 0.000000 1.000000
vn 0.000000 0.000000 1.000000
vn 0.000000 0.000000 1.000000
vn -0.000000 0.000000 -1.000000
vn -0.000000 0.000000 -1.000000
vn -0.000000 0.000000 -1.000000
vn -0.000000 0.000000 -1.000000
vn -1.000000 0.000000 0.000000
vn -1.000000 0.000000 0.000000
vn -1.000000 0.000000 0.000000
vn -1.000000 0.000000 0.000000
vn 0.000000 1.000000 0.000000
vn 0.000000 1.000000 0.000000
vn 0.000000 1.000000 0.000000
vn 0.000000 1.000000 0.000000
vn 1.000000 0.000000 -0.000000
vn 1.000000 0.000000 -0.000000
vn 1.000000 0.000000 -0.000000
vn 1.000000 0.000000 -0.000000
vn 0.000000 -1.000000 0.000000
vn 0.000000 -1.000000 0.000000
vn 0.000000 -1.000000 0.000000
vn 0.000000 -1.000000 0.000000
vn 0.000000 0.000000 1.000000
vn 0.000000 0.000000 1.000000
vn 0.000000 0.000000 1.000000
vn 0.000000 0.000000 1.000000
vn -0.000000 0.000000 -1.000000
vn -0.000000 0.000000 -1.000000
vn -0.000000 0.000000 -1.000000
vn -0.000000 0.000000 -1.000000
vn -1.000000 0.000000 0.000000
vn -1.000000 0.000000 0.000000
vn -1.000000 0.000000 0.000000
vn -1.000000 0.000000 0.000000
vn 0.000000 1.000000 0.000000
vn 0.000000 1.000000 0.000000
vn 0.000000 1.000000 0.000000
vn 0.000000 1.000000 0.000000
vn 1.000000 0.000000 -0.000000
vn 1.000000 0.000000 -0.000000
vn 1.000000 0.000000 -0.000000
vn 1.000000 0.000000 -0.000000
vn 0.000000 -1.000000 0.000000
vn 0.000000 -1.000000 0.000000
vn 0.000000 -1.000000 0.000000
vn 0.000000 -1.000000 0.000000
vn 0.000000 0.000000 1.000000
vn 0.000000 0.000000 1.000000
vn 0.000000 0.000000 1.000000
vn 0.000000 0.000000 1.000000
vn -0.000000 0.000000 -1.000000
vn -0.000000 0.000000 -1.000000
vn -0.000000 0.000000 -1.000000
vn -0.000000 0.000000 -1.000000
vn -1.000000 0.000000 0.000000
vn -1.000000 0.000000 0.000000
vn -1.000000 0.000000 0.000000
vn -1.000000 0.000000 0.000000
vn 0.000000 1.000000 0.000000
vn 0.000000 1.000000 0.000000
vn 0.000000 1.000000 0.000000
vn 0.000000 1.000000 0.000000
vn 1.000000 0.000000 -0.000000
vn 1.000000 0.000000 -0.000000
vn 1.000000 0.000000 -0.000000
vn 1.000000 0.000000 -0.000000
vn 0.000000 -1.000000 0.000000
vn 0.000000 -1.000000 0.000000
vn 0.000000 -1.000000 0.000000
vn 0.000000 -1.000000 0.000000
vn 0.000000 0.000000 1.000000
vn 0.000000 0.000000 1.000000
vn 0.000000 0.000000 1.000000
vn 0.000000 0.000000 1.000000
vn -0.000000 0.000000 -1.000000
vn -0.000000 0.000000 -1.000000
vn -0.000000 0.000000 -1.000000
vn -0.000000 0.000000 -1.000000
vn -1.000000 0.000000 0.000000
vn -1.000000 0.000000 0.000000
vn -1.000000 0.000000 0.000000
vn -1.000000 0.000000 0.000000
vn 0.000000 1.000000 0.000000
vn 0.000000 1.000000 0.000000
vn 0.000000 1.000000 0.000000
vn 0.000000 1.000000 0.000000
vn 1.000000 0.000000 -0.000000
vn 1.000000 0.000000 -0.000000
vn 1.000000 0.000000 -0.000000
vn 1.000000 0.000000 -0.000000
vn 0.000000 -1.000000 0.000000
vn 0.000000 -1.000000 0.000000
vn 0.000000 -1.000000 0.000000
vn 0.000000 -1.000000 0.000000
vn 0.000000 0.000000 1.000000
vn 0.000000 0.000000 1.000000
vn 0.000000 0.000000 1.000000
vn 0.000000 0.000000 1.000000
vn -0.000000 0.000000 -1.000000
vn -0.000000 0.000000 -1.000000
vn -0.000000 0.000000 -1.000000
vn -0.000000 0.000000 -1.000000
vn -1.000000 0.000000 0.000000
vn -1.000000 0.000000 0.000000
vn -1.000000 0.000000 0.000000
vn -1.000000 0.000000 0.000000
vn 0.000000 1.000000 0.000000
vn 0.000000 1.000000 0.000000
vn 0.000000 1.000000 0.000000
vn 0.000000 1.000000 0.000000
vn 1.000000 0.000000 -0.000000
vn 1.000000 0.000000 -0.000000
vn 1.000000 0.000000 -0.000000
vn 1.000000 0.000000 -0.000000
vn 0.000000 -1.000000 0.000000
vn 0.000000 -1.000000 0.000000
vn 0.000000 -1.000000 0.000000
vn 0.000000 -1.000000 0.000000
vn 0.000000 0.000000 1.000000
vn 0.000000 0.000000 1.000000
vn 0.000000 0.000000 1.000000
vn 0.000000 0.000000 1.000000
vn -0.000000 0.000000 -1.000000
vn -0.000000 0.000000 -1.000000
vn -0.000000 0.000000 -1.000000
vn -0.000000 0.000000 -1.000000
vn 0.800441 0.599376 0.006594
vn 0.800441 0.599376 0.006594
vn 0.800441 0.599376 0.006594
vn 0.800441 0.599376 0.006594
vn -0.806470 0.591123 0.013423
vn -0.806470 0.591123 0.013423
vn -0.806470 0.591123 0.013423
vn -0.806470 0.591123 0.013423
vn 0.003755 0.092803 0.995677
vn 0.003755 0.092803 0.995677
vn 0.003840 0.077271 0.997003
vn 0.003840 0.077270 0.997003
vn -0.004791 0.110696 -0.993843
vn -0.004791 0.110697 -0.993843
vn -0.004863 0.126183 -0.991995
vn -0.004863 0.126183 -0.991995
vn -0.710671 0.703367 0.014893
vn -0.710671 0.703367 0.014893
vn -0.710671 0.703367 0.014893
vn -0.710671 0.703367 0.014893
vn -0.006642 0.718878 -0.695105
vn -0.006642 0.718878 -0.695105
vn -0.006642 0.718878 -0.695105
vn -0.006642 0.718878 -0.695105
vn -0.000512 0.695125 0.718889
vn -0.000512 0.695125 0.718889
vn -0.000512 0.695125 0.718889
vn -0.000512 0.695125 0.718889
vn 0.703543 0.710597 0.008883
vn 0.703543 0.710597 0.008883
vn 0.703543 0.710597 0.008883
vn 0.703543 0.710597 0.008883
vn 0.710658 -0.703380 -0.014895
vn 0.710658 -0.703380 -0.014895
vn 0.710658 -0.703380 -0.014895
vn 0.710658 -0.703380 -0.014895
vn 0.000512 -0.695122 -0.718891
vn 0.000512 -0.695122 -0.718891
vn 0.000512 -0.695122 -0.718891
vn 0.000512 -0.695122 -0.718891
vn 0.006642 -0.718869 0.695114
vn 0.006642 -0.718869 0.695114
vn 0.006642 -0.718869 0.695114
vn 0.006642 -0.718869 0.695113
vn -0.703530 -0.710610 -0.008885
vn -0.703530 -0.710610 -0.008885
vn -0.703530 -0.710610 -0.008885
vn -0.703530 -0.710610 -0.008885
vn -0.005059 0.999846 0.016813
vn -0.005059 0.999846 0.016813
vn -0.005059 0.999846 0.016813
vn -0.005059 0.999846 0.016813
vn 0.005059 -0.999846 -0.016813
vn 0.005059 -0.999846 -0.016813
vn 0.005059 -0.999846 -0.016813
vn 0.005059 -0.999846 -0.016813
vn 0.999978 0.005139 -0.004250
vn 0.999978 0.005139 -0.004250
vn 0.999978 0.005139 -0.004250
vn 0.999978 0.005139 -0.004250
vn 0.004335 -0.016814 0.999849
vn 0.004335 -0.016814 0.999849
vn -0.999978 -0.005115 0.004250
vn -0.999978 -0.005115 0.004250
vn -0.999978 -0.005115 0.004250
vn -0.999978 -0.005115 0.004250
vn -0.004335 0.016783 -0.999850
vn -0.004335 0.016783 -0.999850
vn -0.999978 -0.005135 0.004245
vn -0.999978 -0.005135 0.004245
vn -0.999978 -0.005135 0.004245
vn -0.999978 -0.005135 0.004245
vn 0.004335 -0.016779 0.999850
vn 0.004335 -0.016779 0.999850
vn 0.999978 0.005135 -0.004251
vn 0.999978 0.005135 -0.004251
vn 0.999978 0.005135 -0.004251
vn 0.999978 0.005135 -0.004251
vn -0.004335 0.016781 -0.999850
vn -0.004335 0.016781 -0.999850
vn 0.999994 0.003298 0.001070
vn 0.999982 -0.005711 -0.001854
vn 0.999612 0.026498 0.008599
vn 0.999612 0.026498 0.008599
vn 0.000000 0.951147 0.308739
vn 0.000000 0.951147 0.308739
vn 0.000000 0.951147 0.308739
vn 0.000000 0.951147 0.308739
vn -0.999612 -0.026495 -0.008604
vn -0.999612 -0.026495 -0.008604
vn -0.999982 0.005713 0.001852
vn -0.999994 -0.003296 -0.001073
vn -0.000000 -0.951146 -0.308740
vn -0.000000 -0.951146 -0.308740
vn -0.000000 -0.951146 -0.308740
vn -0.000000 -0.951146 -0.308740
vn -0.000000 0.570498 -0.821299
vn -0.000000 0.570244 -0.821476
vn -0.000000 0.435016 -0.900423
vn -0.000000 0.435016 -0.900423
vn 0.000000 -0.570244 0.821475
vn 0.000000 -0.570499 0.821299
vn 0.000000 -0.435017 0.900422
vn 0.000000 -0.435017 0.900422
vn 0.999656 -0.024960 -0.008101
vn 0.999656 -0.024960 -0.008101
vn -0.000000 0.664350 -0.747422
vn -0.000000 0.664350 -0.747422
vn -0.999656 0.024962 0.008101
vn -0.999656 0.024962 0.008101
vn 0.000000 -0.664350 0.747422
vn 0.000000 -0.664350 0.747422
vn -0.999974 -0.004994 0.005149
vn -0.999872 -0.013887 0.007955
vn -0.999828 0.018409 -0.002235
vn -0.999828 0.018409 -0.002235
vn -0.008757 0.953596 -0.300963
vn -0.008757 0.953596 -0.300963
vn -0.008757 0.953596 -0.300963
vn -0.008757 0.953596 -0.300963
vn 0.999828 -0.018408 0.002244
vn 0.999828 -0.018408 0.002244
vn 0.999872 0.013892 -0.007946
vn 0.999974 0.004998 -0.005141
vn 0.008757 -0.953596 0.300962
vn 0.008757 -0.953596 0.300962
vn 0.008757 -0.953596 0.300962
vn 0.008757 -0.953596 0.300962
vn 0.004562 0.559877 0.828563
vn 0.004566 0.559597 0.828752
vn 0.006157 0.422384 0.906396
vn 0.006157 0.422384 0.906396
vn -0.004566 -0.559598 -0.828752
vn -0.004562 -0.559877 -0.828563
vn -0.006158 -0.422382 -0.906397
vn -0.006158 -0.422382 -0.906397
vn -0.999346 -0.033299 0.014077
vn -0.999346 -0.033299 0.014077
vn 0.003269 0.655370 0.755301
vn 0.003269 0.655370 0.755301
vn 0.999346 0.033306 -0.014070
vn 0.999346 0.033306 -0.014070
vn -0.003269 -0.655372 -0.755300
vn -0.003269 -0.655372 -0.755300
s off
g pCube129
usemtl initialShadingGroup
f 1/1/1 2/2/2 4/3/3 3/4/4
f 3/4/5 4/3/6 6/14/7 5/12/8
f 5/6/9 6/5/10 8/7/11 7/10/12
f 7/8/13 8/9/14 2/2/15 1/1/16
f 2/2/17 8/7/18 6/5/19 4/3/20
f 7/11/21 1/1/22 3/4/23 5/13/24
f 9/15/25 10/16/26 12/17/27 11/18/28
f 11/18/29 12/17/30 14/19/31 13/20/32
f 13/21/33 14/22/34 16/23/35 15/24/36
f 15/25/37 16/26/38 10/16/39 9/15/40
f 10/16/41 16/23/42 14/22/43 12/17/44
f 15/27/45 9/15/46 11/18/47 13/28/48
f 17/29/49 18/30/50 20/31/51 19/32/52
f 19/32/53 20/33/54 22/34/55 21/35/56
f 21/35/57 22/36/58 24/37/59 23/38/60
f 23/38/61 24/39/62 18/40/63 17/29/64
f 18/40/65 24/39/66 22/41/67 20/42/68
f 23/38/69 17/29/70 19/32/71 21/35/72
f 25/43/73 26/44/74 28/45/75 27/46/76
f 27/46/77 28/47/78 30/48/79 29/49/80
f 29/49/81 30/50/82 32/51/83 31/52/84
f 31/52/85 32/53/86 26/54/87 25/43/88
f 26/54/89 32/53/90 30/55/91 28/56/92
f 31/52/93 25/43/94 27/46/95 29/49/96
f 33/57/97 34/58/98 36/59/99 35/60/100
f 35/60/101 36/61/102 38/62/103 37/63/104
f 37/63/105 38/64/106 40/65/107 39/66/108
f 39/66/109 40/67/110 34/68/111 33/57/112
f 34/68/113 40/67/114 38/69/115 36/70/116
f 39/66/117 33/57/118 35/60/119 37/63/120
f 41/71/121 42/72/122 44/73/123 43/74/124
f 43/74/125 44/75/126 46/76/127 45/77/128
f 45/77/129 46/78/130 48/79/131 47/80/132
f 47/80/133 48/81/134 42/82/135 41/71/136
f 42/82/137 48/81/138 46/83/139 44/84/140
f 47/80/141 41/71/142 43/74/143 45/77/144
f 49/85/145 50/86/146 55/87/147 56/88/148
f 53/89/149 54/90/150 51/91/151 52/92/152
s 1
f 50/93/153 51/94/154 54/95/155 55/96/156
s 2
f 56/88/157 53/89/158 52/92/159 49/85/160
s off
f 57/97/161 58/98/162 60/99/163 59/100/164
f 58/101/165 57/97/166 61/102/167 62/103/168
f 59/100/169 60/104/170 64/105/171 63/106/172
f 62/107/173 61/102/174 63/106/175 64/108/176
f 65/109/177 66/110/178 68/111/179 67/112/180
f 66/110/181 65/109/182 69/113/183 70/114/184
f 67/115/185 68/116/186 72/117/187 71/118/188
f 70/114/189 69/113/190 71/119/191 72/120/192
f 57/97/193 59/100/194 63/106/195 61/102/196
f 65/121/197 67/122/198 71/123/199 69/124/200
f 62/107/201 64/108/202 50/125/203 49/126/204
s 1
f 60/104/205 51/127/154 50/128/153 64/105/206
s off
f 52/129/207 51/130/208 60/99/209 58/98/210
s 2
f 49/131/160 52/132/159 58/101/211 62/103/212
s off
f 70/114/213 72/120/214 54/90/215 53/89/216
s 1
f 55/96/156 54/95/155 72/117/217 68/116/218
s off
f 56/88/219 55/87/220 68/111/221 66/110/222
s 2
f 70/114/223 53/89/158 56/88/157 66/110/224
s 3
f 81/133/225 82/134/226 76/135/227 75/136/228
s off
f 75/136/229 76/137/230 78/138/231 77/139/232
s 4
f 77/139/233 78/140/234 83/141/235 84/142/236
s off
f 79/143/237 80/144/238 74/145/239 73/146/240
s 5
f 82/147/241 83/148/242 78/149/243 76/150/244
s 6
f 84/142/245 81/133/246 75/136/247 77/139/248
s 3
f 73/146/249 74/151/250 82/134/226 81/133/225
s 5
f 74/145/251 80/144/252 83/148/242 82/147/241
s 4
f 84/142/236 83/152/235 80/153/253 79/143/254
s 6
f 79/143/255 73/146/256 81/133/246 84/142/245
s 7
f 93/154/257 94/155/258 88/156/259 87/157/260
s off
f 87/157/261 88/158/262 90/159/263 89/160/264
s 8
f 89/160/265 90/161/266 95/162/267 96/163/268
s off
f 91/164/269 92/165/270 86/166/271 85/167/272
s 9
f 94/168/273 95/169/274 90/170/275 88/171/276
s 10
f 96/163/277 93/154/278 87/157/279 89/160/280
s 7
f 85/167/281 86/172/282 94/155/258 93/154/257
s 9
f 86/173/283 92/174/284 95/169/274 94/168/273
s 8
f 96/163/268 95/162/267 92/175/285 91/164/286
s 10
f 91/164/287 85/167/288 93/154/278 96/163/277
